<svg fill="#000000" viewBox="-7.5 0 32 32" version="1.1" xmlns="http://www.w3.org/2000/svg"><g id="SVGRepo_bgCarrier" stroke-width="0"></g><g id="SVGRepo_tracerCarrier" stroke-linecap="round" stroke-linejoin="round"></g><g id="SVGRepo_iconCarrier"> <title>blogger</title> <path d="M12.48 24.88h-7.72c-2.64 0-4.8-2.16-4.8-4.8v-8.16c0-2.64 2.16-4.8 4.8-4.8h3.16c2.64 0 4.8 2.16 4.8 4.8v2.48h2.12c1.32 0 2.44 1.080 2.44 2.44v3.2c0 2.68-2.16 4.84-4.8 4.84zM4.76 8.8c-1.72 0-3.12 1.4-3.12 3.12v8.12c0 1.72 1.4 3.12 3.12 3.12h7.72c1.72 0 3.12-1.4 3.12-3.12v-3.2c0-0.4-0.32-0.76-0.76-0.76h-10.4c-0.48 0-0.84-0.36-0.84-0.84s0.36-0.84 0.84-0.84h6.6v-2.48c0-1.72-1.4-3.12-3.12-3.12 0.040 0-3.16 0-3.16 0zM12.68 20.16h-8.2c-0.44 0-0.8-0.36-0.8-0.8s0.36-0.8 0.8-0.8h8.2c0.44 0 0.8 0.36 0.8 0.8s-0.32 0.8-0.8 0.8zM8.44 12.8h-3.92c-0.48 0-0.84-0.36-0.84-0.84s0.36-0.84 0.84-0.84h3.92c0.48 0 0.84 0.36 0.84 0.84s-0.4 0.84-0.84 0.84z"></path> </g></svg>